<?xml version="1.0" standalone="no"?>
<!DOCTYPE svg PUBLIC "-//W3C//DTD SVG 20010904//EN"
 "http://www.w3.org/TR/2001/REC-SVG-20010904/DTD/svg10.dtd">
<svg version="1.0" xmlns="http://www.w3.org/2000/svg"
 width="400.000000pt" height="400.000000pt" viewBox="0 0 400.000000 400.000000"
 preserveAspectRatio="xMidYMid meet">

<g transform="translate(0.000000,400.000000) scale(0.100000,-0.100000)"
fill="#000000" stroke="none">
<path d="M2580 3433 c-14 -10 -275 -240 -580 -513 -304 -272 -626 -559 -715
-637 -171 -153 -194 -183 -173 -232 14 -30 385 -421 400 -421 5 0 183 167 396
371 213 204 401 380 417 391 42 27 98 19 139 -22 l33 -31 152 147 c83 81 158
159 166 175 22 41 18 92 -15 235 -17 71 -37 156 -45 189 -8 33 -28 121 -45
195 -38 167 -65 198 -130 153z"/>
<path d="M2334 2178 c-88 -84 -264 -253 -391 -375 -127 -121 -243 -229 -257
-238 -39 -26 -109 -16 -147 21 l-29 28 -58 -54 c-221 -211 -253 -245 -267
-292 -13 -46 -12 -53 64 -362 43 -173 83 -322 91 -330 7 -9 26 -16 43 -16 34
0 5 -24 652 530 248 212 539 461 648 553 108 93 204 181 211 195 8 15 12 39 9
54 -3 17 -74 99 -199 230 -106 111 -197 204 -202 206 -5 1 -80 -66 -168 -150z"/>
</g>
</svg>
